<mxfile host="app.diagrams.net" modified="2023-03-27T07:39:25.353Z" agent="Mozilla/5.0 (Windows NT 10.0; Win64; x64) AppleWebKit/537.36 (KHTML, like Gecko) Chrome/111.0.0.0 Safari/537.36" version="21.1.0" etag="VJeVJ6qepa5pcfUJtJD6" type="github">
  <diagram name="第 1 页" id="33H9YzeY4-ie1Xpv0Ptj">
    <mxGraphModel>
      <root>
        <mxCell id="0" />
        <mxCell id="1" parent="0" />
      </root>
    </mxGraphModel>
  </diagram>
</mxfile>
